<svg xmlns="http://www.w3.org/2000/svg" xmlns:svg="http://www.w3.org/2000/svg" xmlns:xlink="http://www.w3.org/1999/xlink" id="svg8044" width="535.834" height="535.835" version="1.1" viewBox="0 0 401.875 401.876"><metadata id="metadata8277"/><defs id="defs8046" style="stroke-linecap:butt;stroke-linejoin:round"><style id="style8048" type="text/css">*{stroke-linecap:butt;stroke-linejoin:round}</style></defs><g id="patch_3" transform="translate(-203.48089,-9.3020937)" style="stroke-linecap:butt;stroke-linejoin:round"><path style="fill:none;stroke:#99b2e6;stroke-width:4;stroke-linecap:round;stroke-linejoin:round" id="path8059" d="M 451.274,163.385 Q 503.986,110.672 553.536,61.1223" clip-path="url(#p4fcc9e9ad1)"/><path style="fill:#99b2e6;stroke:#99b2e6;stroke-width:4;stroke-linecap:round;stroke-linejoin:round" id="path8061" d="m 542.93,64.6578 10.606,-3.5355 -3.535,10.6066 -7.071,-7.0711 z" clip-path="url(#p4fcc9e9ad1)"/></g><g id="patch_4" transform="translate(-203.48089,-9.3020937)" style="stroke-linecap:butt;stroke-linejoin:round"><path style="fill:none;stroke:#99b2e6;stroke-width:4;stroke-linecap:round;stroke-linejoin:round" id="path8064" d="m 367.325,247.334 q -38.07,38.07 -72.978,72.978" clip-path="url(#p4fcc9e9ad1)"/><path style="fill:#99b2e6;stroke:#99b2e6;stroke-width:4;stroke-linecap:round;stroke-linejoin:round" id="path8066" d="m 304.953,316.776 -10.606,3.536 3.535,-10.607 7.071,7.071 z" clip-path="url(#p4fcc9e9ad1)"/></g><g id="PathCollection_1" transform="translate(-203.48089,-9.3020937)" style="stroke-linecap:butt;stroke-linejoin:round"><defs id="defs8069"><path id="C0_0_72e6d5a2bf" d="m 0,4.74342 c 1.25797,0 2.46458,-0.4998 3.3541,-1.38932 C 4.24362,2.46458 4.74342,1.25797 4.74342,0 4.74342,-1.25797 4.24362,-2.46458 3.3541,-3.3541 2.46458,-4.24362 1.25797,-4.74342 0,-4.74342 c -1.25797,0 -2.46458,0.4998 -3.3541,1.38932 -0.88952,0.88952 -1.38932,2.09613 -1.38932,3.3541 0,1.25797 0.4998,2.46458 1.38932,3.3541 C -2.46458,4.24362 -1.25797,4.74342 0,4.74342 Z" style="stroke-linecap:butt;stroke-linejoin:round"/></defs><g id="g8072" clip-path="url(#p4fcc9e9ad1)" style="stroke-linecap:butt;stroke-linejoin:round"><use style="fill:red;stroke-linecap:butt;stroke-linejoin:round" id="use8074" width="100%" height="100%" x="443.465" y="288.332" xlink:href="#C0_0_72e6d5a2bf"/></g></g><g id="PathCollection_2" transform="translate(-203.48089,-9.3020937)" style="stroke-linecap:butt;stroke-linejoin:round"><defs id="defs8077"><path id="C1_0_72e6d5a2bf" d="m 0,4.74342 c 1.25797,0 2.46458,-0.4998 3.3541,-1.38932 C 4.24362,2.46458 4.74342,1.25797 4.74342,0 4.74342,-1.25797 4.24362,-2.46458 3.3541,-3.3541 2.46458,-4.24362 1.25797,-4.74342 0,-4.74342 c -1.25797,0 -2.46458,0.4998 -3.3541,1.38932 -0.88952,0.88952 -1.38932,2.09613 -1.38932,3.3541 0,1.25797 0.4998,2.46458 1.38932,3.3541 C -2.46458,4.24362 -1.25797,4.74342 0,4.74342 Z" style="stroke-linecap:butt;stroke-linejoin:round"/></defs><g id="g8080" clip-path="url(#p4fcc9e9ad1)" style="stroke-linecap:butt;stroke-linejoin:round"><use style="fill:red;stroke-linecap:butt;stroke-linejoin:round" id="use8082" width="100%" height="100%" x="365.372" y="132.148" xlink:href="#C1_0_72e6d5a2bf"/></g></g><g id="PathCollection_3" transform="translate(-203.48089,-9.3020937)" style="stroke-linecap:butt;stroke-linejoin:round"><defs id="defs8085"><path id="C2_0_72e6d5a2bf" d="m 0,4.74342 c 1.25797,0 2.46458,-0.4998 3.3541,-1.38932 C 4.24362,2.46458 4.74342,1.25797 4.74342,0 4.74342,-1.25797 4.24362,-2.46458 3.3541,-3.3541 2.46458,-4.24362 1.25797,-4.74342 0,-4.74342 c -1.25797,0 -2.46458,0.4998 -3.3541,1.38932 -0.88952,0.88952 -1.38932,2.09613 -1.38932,3.3541 0,1.25797 0.4998,2.46458 1.38932,3.3541 C -2.46458,4.24362 -1.25797,4.74342 0,4.74342 Z" style="stroke-linecap:butt;stroke-linejoin:round"/></defs><g id="g8088" clip-path="url(#p4fcc9e9ad1)" style="stroke-linecap:butt;stroke-linejoin:round"><use style="fill:#00f;stroke-linecap:butt;stroke-linejoin:round" id="use8090" width="100%" height="100%" x="443.465" y="171.194" xlink:href="#C2_0_72e6d5a2bf"/></g></g><g id="PathCollection_4" transform="translate(-203.48089,-9.3020937)" style="stroke-linecap:butt;stroke-linejoin:round"><defs id="defs8093"><path id="C3_0_72e6d5a2bf" d="m 0,4.74342 c 1.25797,0 2.46458,-0.4998 3.3541,-1.38932 C 4.24362,2.46458 4.74342,1.25797 4.74342,0 4.74342,-1.25797 4.24362,-2.46458 3.3541,-3.3541 2.46458,-4.24362 1.25797,-4.74342 0,-4.74342 c -1.25797,0 -2.46458,0.4998 -3.3541,1.38932 -0.88952,0.88952 -1.38932,2.09613 -1.38932,3.3541 0,1.25797 0.4998,2.46458 1.38932,3.3541 C -2.46458,4.24362 -1.25797,4.74342 0,4.74342 Z" style="stroke-linecap:butt;stroke-linejoin:round"/></defs><g id="g8096" clip-path="url(#p4fcc9e9ad1)" style="stroke-linecap:butt;stroke-linejoin:round"><use style="fill:#00f;stroke-linecap:butt;stroke-linejoin:round" id="use8098" width="100%" height="100%" x="560.603" y="54.055" xlink:href="#C3_0_72e6d5a2bf"/></g></g><g id="PathCollection_5" transform="translate(-203.48089,-9.3020937)" style="stroke-linecap:butt;stroke-linejoin:round"><defs id="defs8101"><path id="C4_0_72e6d5a2bf" d="m 0,4.74342 c 1.25797,0 2.46458,-0.4998 3.3541,-1.38932 C 4.24362,2.46458 4.74342,1.25797 4.74342,0 4.74342,-1.25797 4.24362,-2.46458 3.3541,-3.3541 2.46458,-4.24362 1.25797,-4.74342 0,-4.74342 c -1.25797,0 -2.46458,0.4998 -3.3541,1.38932 -0.88952,0.88952 -1.38932,2.09613 -1.38932,3.3541 0,1.25797 0.4998,2.46458 1.38932,3.3541 C -2.46458,4.24362 -1.25797,4.74342 0,4.74342 Z" style="stroke-linecap:butt;stroke-linejoin:round"/></defs><g id="g8104" clip-path="url(#p4fcc9e9ad1)" style="stroke-linecap:butt;stroke-linejoin:round"><use style="fill:#00f;stroke-linecap:butt;stroke-linejoin:round" id="use8106" width="100%" height="100%" x="375.134" y="239.525" xlink:href="#C4_0_72e6d5a2bf"/></g></g><g id="PathCollection_6" transform="translate(-203.48089,-9.3020937)" style="stroke-linecap:butt;stroke-linejoin:round"><defs id="defs8109"><path id="C5_0_72e6d5a2bf" d="m 0,4.74342 c 1.25797,0 2.46458,-0.4998 3.3541,-1.38932 C 4.24362,2.46458 4.74342,1.25797 4.74342,0 4.74342,-1.25797 4.24362,-2.46458 3.3541,-3.3541 2.46458,-4.24362 1.25797,-4.74342 0,-4.74342 c -1.25797,0 -2.46458,0.4998 -3.3541,1.38932 -0.88952,0.88952 -1.38932,2.09613 -1.38932,3.3541 0,1.25797 0.4998,2.46458 1.38932,3.3541 C -2.46458,4.24362 -1.25797,4.74342 0,4.74342 Z" style="stroke-linecap:butt;stroke-linejoin:round"/></defs><g id="g8112" clip-path="url(#p4fcc9e9ad1)" style="stroke-linecap:butt;stroke-linejoin:round"><use style="fill:#00f;stroke-linecap:butt;stroke-linejoin:round" id="use8114" width="100%" height="100%" x="287.28" y="327.378" xlink:href="#C5_0_72e6d5a2bf"/></g></g><g id="patch_5" transform="translate(-203.48089,-9.3020937)" style="stroke-linecap:butt;stroke-linejoin:round"><path style="fill:none;stroke:#000;stroke-linecap:round;stroke-linejoin:round" id="path8117" d="m 404.418,210.24 q 0,-97.615 0,-194.1127" clip-path="url(#p4fcc9e9ad1)"/><path style="stroke:#000;stroke-linecap:round;stroke-linejoin:round" id="path8119" d="m 399.418,26.1273 5,-10 5,10 -10,0 z" clip-path="url(#p4fcc9e9ad1)"/></g><g id="patch_6" transform="translate(-203.48089,-9.3020937)" style="stroke-linecap:butt;stroke-linejoin:round"><path style="fill:none;stroke:#000;stroke-linecap:round;stroke-linejoin:round" id="path8122" d="m 404.418,210.24 q 0,97.615 0,194.113" clip-path="url(#p4fcc9e9ad1)"/><path style="stroke:#000;stroke-linecap:round;stroke-linejoin:round" id="path8124" d="m 409.418,394.353 -5,10 -5,-10 10,0 z" clip-path="url(#p4fcc9e9ad1)"/></g><g id="patch_7" transform="translate(-203.48089,-9.3020937)" style="stroke-linecap:butt;stroke-linejoin:round"><path style="fill:none;stroke:#000;stroke-linecap:round;stroke-linejoin:round" id="path8127" d="m 404.418,210.24 q 97.616,0 194.113,0" clip-path="url(#p4fcc9e9ad1)"/><path style="stroke:#000;stroke-linecap:round;stroke-linejoin:round" id="path8129" d="m 588.531,205.24 10,5 -10,5 0,-10 z" clip-path="url(#p4fcc9e9ad1)"/></g><g id="patch_8" transform="translate(-203.48089,-9.3020937)" style="stroke-linecap:butt;stroke-linejoin:round"><path style="fill:none;stroke:#000;stroke-linecap:round;stroke-linejoin:round" id="path8132" d="m 404.418,210.24 q -97.615,0 -194.112,0" clip-path="url(#p4fcc9e9ad1)"/><path style="stroke:#000;stroke-linecap:round;stroke-linejoin:round" id="path8134" d="m 220.306,215.24 -10,-5 10,-5 0,10 z" clip-path="url(#p4fcc9e9ad1)"/></g><g id="line2d_1" transform="translate(-203.48089,-9.3020937)" style="stroke-linecap:butt;stroke-linejoin:round"><path style="fill:none;stroke:#00f;stroke-linecap:square;stroke-linejoin:round" id="path8137" d="M 209.188,405.471 599.649,15.0092" clip-path="url(#p4fcc9e9ad1)"/></g><g id="line2d_2" transform="translate(-203.48089,-9.3020937)" style="stroke-linecap:butt;stroke-linejoin:round"><path style="fill:none;stroke:red;stroke-linecap:square;stroke-linejoin:round" id="path8140" d="M 306.803,15.0092 502.034,405.471" clip-path="url(#p4fcc9e9ad1)"/></g><defs id="defs8270"><clipPath id="p4fcc9e9ad1" style="stroke-linecap:butt;stroke-linejoin:round"><rect id="rect8273" width="466.992" height="406.08" x="151.399" y="7.2" style="stroke-linecap:butt;stroke-linejoin:round"/></clipPath></defs></svg>