<svg xmlns="http://www.w3.org/2000/svg" xmlns:xlink="http://www.w3.org/1999/xlink" width="752" height="368" version="1.1" viewBox="0 0 564 276"><defs><style type="text/css">*{stroke-linecap:butt;stroke-linejoin:round;stroke-miterlimit:100000}</style></defs><g id="figure_1"><g id="patch_1"><path d="M 0 276.941114 L 564.48 276.941114 L 564.48 0 L 0 0 z" style="fill:#fff"/></g><g id="axes_1"><g id="patch_2"><path d="M 7.2 266.022526 L 557.28 266.022526 L 557.28 10.918588 L 7.2 10.918588 z" style="fill:#fff"/></g><g id="PathCollection_1"><path d="M 17.778462 189.143176 C 19.03643 189.143176 20.243045 188.64338 21.132564 187.753861 C 22.022082 186.864343 22.521878 185.657728 22.521878 184.399759 C 22.521878 183.141791 22.022082 181.935176 21.132564 181.045658 C 20.243045 180.156139 19.03643 179.656343 17.778462 179.656343 C 16.520493 179.656343 15.313878 180.156139 14.42436 181.045658 C 13.534841 181.935176 13.035045 183.141791 13.035045 184.399759 C 13.035045 185.657728 13.534841 186.864343 14.42436 187.753861 C 15.313878 188.64338 16.520493 189.143176 17.778462 189.143176 z" clip-path="url(#p8918e574df)" style="fill:#00f"/></g><g id="PathCollection_2"><path d="M 546.701538 265.860098 C 547.959507 265.860098 549.166122 265.360301 550.05564 264.470783 C 550.945159 263.581265 551.444955 262.37465 551.444955 261.116681 C 551.444955 259.858712 550.945159 258.652097 550.05564 257.762579 C 549.166122 256.873061 547.959507 256.373265 546.701538 256.373265 C 545.44357 256.373265 544.236955 256.873061 543.347436 257.762579 C 542.457918 258.652097 541.958122 259.858712 541.958122 261.116681 C 541.958122 262.37465 542.457918 263.581265 543.347436 264.470783 C 544.236955 265.360301 545.44357 265.860098 546.701538 265.860098 z" clip-path="url(#p8918e574df)" style="fill:#00f"/></g><g id="PathCollection_3"><path d="M 17.778462 97.284771 C 19.03643 97.284771 20.243045 96.784975 21.132564 95.895457 C 22.022082 95.005939 22.521878 93.799324 22.521878 92.541355 C 22.521878 91.283386 22.022082 90.076771 21.132564 89.187253 C 20.243045 88.297735 19.03643 87.797938 17.778462 87.797938 C 16.520493 87.797938 15.313878 88.297735 14.42436 89.187253 C 13.534841 90.076771 13.035045 91.283386 13.035045 92.541355 C 13.035045 93.799324 13.534841 95.005939 14.42436 95.895457 C 15.313878 96.784975 16.520493 97.284771 17.778462 97.284771 z" clip-path="url(#p8918e574df)" style="fill:#00f"/></g><g id="PathCollection_4"><path d="M 546.701538 20.56785 C 547.959507 20.56785 549.166122 20.068053 550.05564 19.178535 C 550.945159 18.289017 551.444955 17.082402 551.444955 15.824433 C 551.444955 14.566464 550.945159 13.359849 550.05564 12.470331 C 549.166122 11.580813 547.959507 11.081017 546.701538 11.081017 C 545.44357 11.081017 544.236955 11.580813 543.347436 12.470331 C 542.457918 13.359849 541.958122 14.566464 541.958122 15.824433 C 541.958122 17.082402 542.457918 18.289017 543.347436 19.178535 C 544.236955 20.068053 545.44357 20.56785 546.701538 20.56785 z" clip-path="url(#p8918e574df)" style="fill:#00f"/></g><g id="patch_3"><path d="M 7.2 138.470557 L 557.28 138.470557" style="fill:none;stroke:#000;stroke-linecap:square;stroke-linejoin:miter;stroke-width:.8"/></g><g id="patch_4"><path d="M 282.24 266.022526 L 282.24 10.918588" style="fill:none;stroke:#000;stroke-linecap:square;stroke-linejoin:miter;stroke-width:.8"/></g><g id="matplotlib.axis_1"><g id="xtick_1"><g id="line2d_1"><defs><path id="ma0d97db3e9" d="M 0 0 L 0 -4" style="stroke:#000;stroke-width:.5"/></defs><g><use style="stroke:#000;stroke-width:.5" x="41.532" y="138.471" xlink:href="#ma0d97db3e9"/></g></g><g id="text_1"><defs><path id="BitstreamVeraSans-Roman-31" d="M 12.40625 8.296875 L 28.515625 8.296875 L 28.515625 63.921875 L 10.984375 60.40625 L 10.984375 69.390625 L 28.421875 72.90625 L 38.28125 72.90625 L 38.28125 8.296875 L 54.390625 8.296875 L 54.390625 0 L 12.40625 0 z"/><path id="BitstreamVeraSans-Roman-2d" d="M 4.890625 31.390625 L 31.203125 31.390625 L 31.203125 23.390625 L 4.890625 23.390625 z"/></defs><g transform="translate(36.5473144249 150.068994711)scale(0.1 -0.1)"><use xlink:href="#BitstreamVeraSans-Roman-2d"/><use x="36.084" xlink:href="#BitstreamVeraSans-Roman-31"/></g></g></g><g id="xtick_2"><g id="line2d_2"><g><use style="stroke:#000;stroke-width:.5" x="161.886" y="138.471" xlink:href="#ma0d97db3e9"/></g></g><g id="text_2"><defs><path id="BitstreamVeraSans-Roman-30" d="M 31.78125 66.40625 Q 24.171875 66.40625 20.328125 58.90625 Q 16.5 51.421875 16.5 36.375 Q 16.5 21.390625 20.328125 13.890625 Q 24.171875 6.390625 31.78125 6.390625 Q 39.453125 6.390625 43.28125 13.890625 Q 47.125 21.390625 47.125 36.375 Q 47.125 51.421875 43.28125 58.90625 Q 39.453125 66.40625 31.78125 66.40625 M 31.78125 74.21875 Q 44.046875 74.21875 50.515625 64.515625 Q 56.984375 54.828125 56.984375 36.375 Q 56.984375 17.96875 50.515625 8.265625 Q 44.046875 -1.421875 31.78125 -1.421875 Q 19.53125 -1.421875 13.0625 8.265625 Q 6.59375 17.96875 6.59375 36.375 Q 6.59375 54.828125 13.0625 64.515625 Q 19.53125 74.21875 31.78125 74.21875"/><path id="BitstreamVeraSans-Roman-2e" d="M 10.6875 12.40625 L 21 12.40625 L 21 0 L 10.6875 0 z"/><path id="BitstreamVeraSans-Roman-35" d="M 10.796875 72.90625 L 49.515625 72.90625 L 49.515625 64.59375 L 19.828125 64.59375 L 19.828125 46.734375 Q 21.96875 47.46875 24.109375 47.828125 Q 26.265625 48.1875 28.421875 48.1875 Q 40.625 48.1875 47.75 41.5 Q 54.890625 34.8125 54.890625 23.390625 Q 54.890625 11.625 47.5625 5.09375 Q 40.234375 -1.421875 26.90625 -1.421875 Q 22.3125 -1.421875 17.546875 -0.640625 Q 12.796875 0.140625 7.71875 1.703125 L 7.71875 11.625 Q 12.109375 9.234375 16.796875 8.0625 Q 21.484375 6.890625 26.703125 6.890625 Q 35.15625 6.890625 40.078125 11.328125 Q 45.015625 15.765625 45.015625 23.390625 Q 45.015625 31 40.078125 35.4375 Q 35.15625 39.890625 26.703125 39.890625 Q 22.75 39.890625 18.8125 39.015625 Q 14.890625 38.140625 10.796875 36.28125 z"/></defs><g transform="translate(152.130766587 150.068994711)scale(0.1 -0.1)"><use xlink:href="#BitstreamVeraSans-Roman-2d"/><use x="36.084" xlink:href="#BitstreamVeraSans-Roman-30"/><use x="99.707" xlink:href="#BitstreamVeraSans-Roman-2e"/><use x="131.494" xlink:href="#BitstreamVeraSans-Roman-35"/></g></g></g><g id="xtick_3"><g id="line2d_3"><g><use style="stroke:#000;stroke-width:.5" x="282.24" y="138.471" xlink:href="#ma0d97db3e9"/></g></g></g><g id="xtick_4"><g id="line2d_4"><g><use style="stroke:#000;stroke-width:.5" x="402.594" y="138.471" xlink:href="#ma0d97db3e9"/></g></g><g id="text_3"><g transform="translate(394.642202163 150.068994711)scale(0.1 -0.1)"><use xlink:href="#BitstreamVeraSans-Roman-30"/><use x="63.623" xlink:href="#BitstreamVeraSans-Roman-2e"/><use x="95.41" xlink:href="#BitstreamVeraSans-Roman-35"/></g></g></g><g id="xtick_5"><g id="line2d_5"><g><use style="stroke:#000;stroke-width:.5" x="522.948" y="138.471" xlink:href="#ma0d97db3e9"/></g></g><g id="text_4"><g transform="translate(519.766279325 150.068994711)scale(0.1 -0.1)"><use xlink:href="#BitstreamVeraSans-Roman-31"/></g></g></g><g id="xtick_6"><g id="line2d_6"><defs><path id="me89fdf0613" d="M 0 0 L 0 -2" style="stroke:#000;stroke-width:.5"/></defs><g><use style="stroke:#000;stroke-width:.5" x="17.462" y="138.471" xlink:href="#me89fdf0613"/></g></g></g><g id="xtick_7"><g id="line2d_7"><g><use style="stroke:#000;stroke-width:.5" x="65.603" y="138.471" xlink:href="#me89fdf0613"/></g></g></g><g id="xtick_8"><g id="line2d_8"><g><use style="stroke:#000;stroke-width:.5" x="89.674" y="138.471" xlink:href="#me89fdf0613"/></g></g></g><g id="xtick_9"><g id="line2d_9"><g><use style="stroke:#000;stroke-width:.5" x="113.745" y="138.471" xlink:href="#me89fdf0613"/></g></g></g><g id="xtick_10"><g id="line2d_10"><g><use style="stroke:#000;stroke-width:.5" x="137.815" y="138.471" xlink:href="#me89fdf0613"/></g></g></g><g id="xtick_11"><g id="line2d_11"><g><use style="stroke:#000;stroke-width:.5" x="161.886" y="138.471" xlink:href="#me89fdf0613"/></g></g></g><g id="xtick_12"><g id="line2d_12"><g><use style="stroke:#000;stroke-width:.5" x="185.957" y="138.471" xlink:href="#me89fdf0613"/></g></g></g><g id="xtick_13"><g id="line2d_13"><g><use style="stroke:#000;stroke-width:.5" x="210.028" y="138.471" xlink:href="#me89fdf0613"/></g></g></g><g id="xtick_14"><g id="line2d_14"><g><use style="stroke:#000;stroke-width:.5" x="234.098" y="138.471" xlink:href="#me89fdf0613"/></g></g></g><g id="xtick_15"><g id="line2d_15"><g><use style="stroke:#000;stroke-width:.5" x="258.169" y="138.471" xlink:href="#me89fdf0613"/></g></g></g><g id="xtick_16"><g id="line2d_16"><g><use style="stroke:#000;stroke-width:.5" x="282.24" y="138.471" xlink:href="#me89fdf0613"/></g></g></g><g id="xtick_17"><g id="line2d_17"><g><use style="stroke:#000;stroke-width:.5" x="306.311" y="138.471" xlink:href="#me89fdf0613"/></g></g></g><g id="xtick_18"><g id="line2d_18"><g><use style="stroke:#000;stroke-width:.5" x="330.382" y="138.471" xlink:href="#me89fdf0613"/></g></g></g><g id="xtick_19"><g id="line2d_19"><g><use style="stroke:#000;stroke-width:.5" x="354.452" y="138.471" xlink:href="#me89fdf0613"/></g></g></g><g id="xtick_20"><g id="line2d_20"><g><use style="stroke:#000;stroke-width:.5" x="378.523" y="138.471" xlink:href="#me89fdf0613"/></g></g></g><g id="xtick_21"><g id="line2d_21"><g><use style="stroke:#000;stroke-width:.5" x="402.594" y="138.471" xlink:href="#me89fdf0613"/></g></g></g><g id="xtick_22"><g id="line2d_22"><g><use style="stroke:#000;stroke-width:.5" x="426.665" y="138.471" xlink:href="#me89fdf0613"/></g></g></g><g id="xtick_23"><g id="line2d_23"><g><use style="stroke:#000;stroke-width:.5" x="450.735" y="138.471" xlink:href="#me89fdf0613"/></g></g></g><g id="xtick_24"><g id="line2d_24"><g><use style="stroke:#000;stroke-width:.5" x="474.806" y="138.471" xlink:href="#me89fdf0613"/></g></g></g><g id="xtick_25"><g id="line2d_25"><g><use style="stroke:#000;stroke-width:.5" x="498.877" y="138.471" xlink:href="#me89fdf0613"/></g></g></g><g id="xtick_26"><g id="line2d_26"><g><use style="stroke:#000;stroke-width:.5" x="522.948" y="138.471" xlink:href="#me89fdf0613"/></g></g></g><g id="xtick_27"><g id="line2d_27"><g><use style="stroke:#000;stroke-width:.5" x="547.018" y="138.471" xlink:href="#me89fdf0613"/></g></g></g></g><g id="matplotlib.axis_2"><g id="ytick_1"><g id="line2d_28"><defs><path id="m95d1b8d2b5" d="M 0 0 L 4 0" style="stroke:#000;stroke-width:.5"/></defs><g><use style="stroke:#000;stroke-width:.5" x="282.24" y="264.902" xlink:href="#m95d1b8d2b5"/></g></g><g id="text_5"><g transform="translate(258.7290625 267.661426922)scale(0.1 -0.1)"><use xlink:href="#BitstreamVeraSans-Roman-2d"/><use x="36.084" xlink:href="#BitstreamVeraSans-Roman-31"/><use x="99.707" xlink:href="#BitstreamVeraSans-Roman-2e"/><use x="131.494" xlink:href="#BitstreamVeraSans-Roman-35"/></g></g></g><g id="ytick_2"><g id="line2d_29"><g><use style="stroke:#000;stroke-width:.5" x="282.24" y="222.758" xlink:href="#m95d1b8d2b5"/></g></g><g id="text_6"><g transform="translate(268.2696875 225.517595352)scale(0.1 -0.1)"><use xlink:href="#BitstreamVeraSans-Roman-2d"/><use x="36.084" xlink:href="#BitstreamVeraSans-Roman-31"/></g></g></g><g id="ytick_3"><g id="line2d_30"><g><use style="stroke:#000;stroke-width:.5" x="282.24" y="180.614" xlink:href="#m95d1b8d2b5"/></g></g><g id="text_7"><g transform="translate(258.7290625 183.373763782)scale(0.1 -0.1)"><use xlink:href="#BitstreamVeraSans-Roman-2d"/><use x="36.084" xlink:href="#BitstreamVeraSans-Roman-30"/><use x="99.707" xlink:href="#BitstreamVeraSans-Roman-2e"/><use x="131.494" xlink:href="#BitstreamVeraSans-Roman-35"/></g></g></g><g id="ytick_4"><g id="line2d_31"><g><use style="stroke:#000;stroke-width:.5" x="282.24" y="138.471" xlink:href="#m95d1b8d2b5"/></g></g></g><g id="ytick_5"><g id="line2d_32"><g><use style="stroke:#000;stroke-width:.5" x="282.24" y="96.327" xlink:href="#m95d1b8d2b5"/></g></g><g id="text_8"><g transform="translate(262.336875 99.0861006408)scale(0.1 -0.1)"><use xlink:href="#BitstreamVeraSans-Roman-30"/><use x="63.623" xlink:href="#BitstreamVeraSans-Roman-2e"/><use x="95.41" xlink:href="#BitstreamVeraSans-Roman-35"/></g></g></g><g id="ytick_6"><g id="line2d_33"><g><use style="stroke:#000;stroke-width:.5" x="282.24" y="54.183" xlink:href="#m95d1b8d2b5"/></g></g><g id="text_9"><g transform="translate(271.8775 56.9422690704)scale(0.1 -0.1)"><use xlink:href="#BitstreamVeraSans-Roman-31"/></g></g></g><g id="ytick_7"><g id="line2d_34"><g><use style="stroke:#000;stroke-width:.5" x="282.24" y="12.039" xlink:href="#m95d1b8d2b5"/></g></g><g id="text_10"><g transform="translate(262.336875 14.7984375)scale(0.1 -0.1)"><use xlink:href="#BitstreamVeraSans-Roman-31"/><use x="63.623" xlink:href="#BitstreamVeraSans-Roman-2e"/><use x="95.41" xlink:href="#BitstreamVeraSans-Roman-35"/></g></g></g><g id="ytick_8"><g id="line2d_35"><defs><path id="m7718e33d62" d="M 0 0 L 2 0" style="stroke:#000;stroke-width:.5"/></defs><g><use style="stroke:#000;stroke-width:.5" x="282.24" y="256.473" xlink:href="#m7718e33d62"/></g></g></g><g id="ytick_9"><g id="line2d_36"><g><use style="stroke:#000;stroke-width:.5" x="282.24" y="248.045" xlink:href="#m7718e33d62"/></g></g></g><g id="ytick_10"><g id="line2d_37"><g><use style="stroke:#000;stroke-width:.5" x="282.24" y="239.616" xlink:href="#m7718e33d62"/></g></g></g><g id="ytick_11"><g id="line2d_38"><g><use style="stroke:#000;stroke-width:.5" x="282.24" y="231.187" xlink:href="#m7718e33d62"/></g></g></g><g id="ytick_12"><g id="line2d_39"><g><use style="stroke:#000;stroke-width:.5" x="282.24" y="214.329" xlink:href="#m7718e33d62"/></g></g></g><g id="ytick_13"><g id="line2d_40"><g><use style="stroke:#000;stroke-width:.5" x="282.24" y="205.901" xlink:href="#m7718e33d62"/></g></g></g><g id="ytick_14"><g id="line2d_41"><g><use style="stroke:#000;stroke-width:.5" x="282.24" y="197.472" xlink:href="#m7718e33d62"/></g></g></g><g id="ytick_15"><g id="line2d_42"><g><use style="stroke:#000;stroke-width:.5" x="282.24" y="189.043" xlink:href="#m7718e33d62"/></g></g></g><g id="ytick_16"><g id="line2d_43"><g><use style="stroke:#000;stroke-width:.5" x="282.24" y="180.614" xlink:href="#m7718e33d62"/></g></g></g><g id="ytick_17"><g id="line2d_44"><g><use style="stroke:#000;stroke-width:.5" x="282.24" y="172.186" xlink:href="#m7718e33d62"/></g></g></g><g id="ytick_18"><g id="line2d_45"><g><use style="stroke:#000;stroke-width:.5" x="282.24" y="163.757" xlink:href="#m7718e33d62"/></g></g></g><g id="ytick_19"><g id="line2d_46"><g><use style="stroke:#000;stroke-width:.5" x="282.24" y="155.328" xlink:href="#m7718e33d62"/></g></g></g><g id="ytick_20"><g id="line2d_47"><g><use style="stroke:#000;stroke-width:.5" x="282.24" y="146.899" xlink:href="#m7718e33d62"/></g></g></g><g id="ytick_21"><g id="line2d_48"><g><use style="stroke:#000;stroke-width:.5" x="282.24" y="138.471" xlink:href="#m7718e33d62"/></g></g></g><g id="ytick_22"><g id="line2d_49"><g><use style="stroke:#000;stroke-width:.5" x="282.24" y="130.042" xlink:href="#m7718e33d62"/></g></g></g><g id="ytick_23"><g id="line2d_50"><g><use style="stroke:#000;stroke-width:.5" x="282.24" y="121.613" xlink:href="#m7718e33d62"/></g></g></g><g id="ytick_24"><g id="line2d_51"><g><use style="stroke:#000;stroke-width:.5" x="282.24" y="113.184" xlink:href="#m7718e33d62"/></g></g></g><g id="ytick_25"><g id="line2d_52"><g><use style="stroke:#000;stroke-width:.5" x="282.24" y="104.755" xlink:href="#m7718e33d62"/></g></g></g><g id="ytick_26"><g id="line2d_53"><g><use style="stroke:#000;stroke-width:.5" x="282.24" y="96.327" xlink:href="#m7718e33d62"/></g></g></g><g id="ytick_27"><g id="line2d_54"><g><use style="stroke:#000;stroke-width:.5" x="282.24" y="87.898" xlink:href="#m7718e33d62"/></g></g></g><g id="ytick_28"><g id="line2d_55"><g><use style="stroke:#000;stroke-width:.5" x="282.24" y="79.469" xlink:href="#m7718e33d62"/></g></g></g><g id="ytick_29"><g id="line2d_56"><g><use style="stroke:#000;stroke-width:.5" x="282.24" y="71.04" xlink:href="#m7718e33d62"/></g></g></g><g id="ytick_30"><g id="line2d_57"><g><use style="stroke:#000;stroke-width:.5" x="282.24" y="62.612" xlink:href="#m7718e33d62"/></g></g></g><g id="ytick_31"><g id="line2d_58"><g><use style="stroke:#000;stroke-width:.5" x="282.24" y="54.183" xlink:href="#m7718e33d62"/></g></g></g><g id="ytick_32"><g id="line2d_59"><g><use style="stroke:#000;stroke-width:.5" x="282.24" y="45.754" xlink:href="#m7718e33d62"/></g></g></g><g id="ytick_33"><g id="line2d_60"><g><use style="stroke:#000;stroke-width:.5" x="282.24" y="37.325" xlink:href="#m7718e33d62"/></g></g></g><g id="ytick_34"><g id="line2d_61"><g><use style="stroke:#000;stroke-width:.5" x="282.24" y="28.897" xlink:href="#m7718e33d62"/></g></g></g><g id="ytick_35"><g id="line2d_62"><g><use style="stroke:#000;stroke-width:.5" x="282.24" y="20.468" xlink:href="#m7718e33d62"/></g></g></g><g id="ytick_36"><g id="line2d_63"><g><use style="stroke:#000;stroke-width:.5" x="282.24" y="12.039" xlink:href="#m7718e33d62"/></g></g></g></g></g></g><defs><clipPath id="p8918e574df"><rect width="550.08" height="255.104" x="7.2" y="10.919"/></clipPath></defs></svg>