<svg xmlns="http://www.w3.org/2000/svg" xmlns:xlink="http://www.w3.org/1999/xlink" width="463pt" height="560" version="1.1" viewBox="0 0 463 420"><defs><style type="text/css">*{stroke-linecap:butt;stroke-linejoin:round}</style></defs><g id="figure_1"><g id="patch_1"><path d="M0 420.48 L463.273 420.48 L463.273 0 L0 0 z" style="fill:#fff"/></g><g id="axes_1"><g id="patch_2"><path d="M7.2 413.28 L456.073 413.28 L456.073 7.2 L7.2 7.2 z" style="fill:#fff"/></g><g id="line2d_1"><path d="M331.003 125.319 L359.018 111.311" clip-path="url(#paa076fcf06)" style="fill:none;stroke:red;stroke-dasharray:6,6;stroke-dashoffset:0;stroke-width:2"/></g><g id="PathCollection_1"><defs><path id="C0_0_72e6d5a2bf" d="M0 4.74342 C1.25797 4.74342 2.46458 4.24362 3.3541 3.3541 C4.24362 2.46458 4.74342 1.25797 4.74342 0 C4.74342 -1.25797 4.24362 -2.46458 3.3541 -3.3541 C2.46458 -4.24362 1.25797 -4.74342 0 -4.74342 C-1.25797 -4.74342 -2.46458 -4.24362 -3.3541 -3.3541 C-4.24362 -2.46458 -4.74342 -1.25797 -4.74342 0 C-4.74342 1.25797 -4.24362 2.46458 -3.3541 3.3541 C-2.46458 4.24362 -1.25797 4.74342 0 4.74342 z"/></defs><g clip-path="url(#paa076fcf06)"><use x="331.003" y="125.319" xlink:href="#C0_0_72e6d5a2bf"/></g></g><g id="PathCollection_2"><defs><path id="C1_0_72e6d5a2bf" d="M0 4.74342 C1.25797 4.74342 2.46458 4.24362 3.3541 3.3541 C4.24362 2.46458 4.74342 1.25797 4.74342 0 C4.74342 -1.25797 4.24362 -2.46458 3.3541 -3.3541 C2.46458 -4.24362 1.25797 -4.74342 0 -4.74342 C-1.25797 -4.74342 -2.46458 -4.24362 -3.3541 -3.3541 C-4.24362 -2.46458 -4.74342 -1.25797 -4.74342 0 C-4.74342 1.25797 -4.24362 2.46458 -3.3541 3.3541 C-2.46458 4.24362 -1.25797 4.74342 0 4.74342 z"/></defs><g clip-path="url(#paa076fcf06)"><use style="fill:#00f" x="366.022" y="125.319" xlink:href="#C1_0_72e6d5a2bf"/></g></g><g id="PathCollection_3"><defs><path id="C2_0_72e6d5a2bf" d="M0 4.74342 C1.25797 4.74342 2.46458 4.24362 3.3541 3.3541 C4.24362 2.46458 4.74342 1.25797 4.74342 0 C4.74342 -1.25797 4.24362 -2.46458 3.3541 -3.3541 C2.46458 -4.24362 1.25797 -4.74342 0 -4.74342 C-1.25797 -4.74342 -2.46458 -4.24362 -3.3541 -3.3541 C-4.24362 -2.46458 -4.74342 -1.25797 -4.74342 0 C-4.74342 1.25797 -4.24362 2.46458 -3.3541 3.3541 C-2.46458 4.24362 -1.25797 4.74342 0 4.74342 z"/></defs><g clip-path="url(#paa076fcf06)"><use style="fill:#00f" x="331.003" y="55.281" xlink:href="#C2_0_72e6d5a2bf"/></g></g><g id="patch_3"><path d="M50.8511 370.452 Q50.8511 195.357 50.8511 21.3801" clip-path="url(#paa076fcf06)" style="fill:none;stroke:#000;stroke-linecap:round"/><path d="M45.8511 31.3801 L50.8511 21.3801 L55.8511 31.3801 L45.8511 31.3801 z" clip-path="url(#paa076fcf06)" style="stroke:#000;stroke-linecap:round"/></g><g id="patch_4"><path d="M50.8511 370.452 Q50.8511 387.961 50.8511 404.353" clip-path="url(#paa076fcf06)" style="fill:none;stroke:#000;stroke-linecap:round"/><path d="M55.8511 394.353 L50.8511 404.353 L45.8511 394.353 L55.8511 394.353 z" clip-path="url(#paa076fcf06)" style="stroke:#000;stroke-linecap:round"/></g><g id="patch_5"><path d="M50.8511 370.452 Q243.455 370.452 434.942 370.452" clip-path="url(#paa076fcf06)" style="fill:none;stroke:#000;stroke-linecap:round"/><path d="M424.942 365.452 L434.942 370.452 L424.942 375.452 L424.942 365.452 z" clip-path="url(#paa076fcf06)" style="stroke:#000;stroke-linecap:round"/></g><g id="patch_6"><path d="M50.8511 370.452 Q33.3417 370.452 16.9502 370.452" clip-path="url(#paa076fcf06)" style="fill:none;stroke:#000;stroke-linecap:round"/><path d="M26.9502 375.452 L16.9502 370.452 L26.9502 365.452 L26.9502 375.452 z" clip-path="url(#paa076fcf06)" style="stroke:#000;stroke-linecap:round"/></g><g id="patch_7"><path d="M322.248 37.7716 Q316.558 26.3904 311.867 17.0092" clip-path="url(#paa076fcf06)" style="fill:none;stroke:#00f;stroke-linecap:round;stroke-width:2"/><path d="M311.867 28.1896 L311.867 17.0092 L320.811 23.7174 L311.867 28.1896 z" clip-path="url(#paa076fcf06)" style="fill:#00f;stroke:#00f;stroke-linecap:round;stroke-width:2"/></g><g id="patch_8"><path d="M436.06 265.395 Q441.75 276.776 446.441 286.157" clip-path="url(#paa076fcf06)" style="fill:none;stroke:#00f;stroke-linecap:round;stroke-width:2"/><path d="M446.441 274.977 L446.441 286.157 L437.497 279.449 L446.441 274.977 z" clip-path="url(#paa076fcf06)" style="fill:#00f;stroke:#00f;stroke-linecap:round;stroke-width:2"/></g><g id="line2d_2"><path d="M322.248 37.7716 L436.06 265.395 L436.06 265.395" clip-path="url(#paa076fcf06)" style="fill:none;stroke:#00f;stroke-linecap:square;stroke-width:2"/></g><g id="line2d_3"><path d="M50.8511 370.452 L401.041 195.357 L401.041 195.357" clip-path="url(#paa076fcf06)" style="fill:none;stroke:#00f;stroke-dasharray:6,6;stroke-dashoffset:0;stroke-width:2"/></g><g id="patch_9"><path d="M401.041 199.734 C402.202 199.734 403.315 199.273 404.136 198.452 C404.957 197.631 405.418 196.518 405.418 195.357 C405.418 194.196 404.957 193.083 404.136 192.262 C403.315 191.441 402.202 190.98 401.041 190.98 C399.88 190.98 398.766 191.441 397.946 192.262 C397.125 193.083 396.663 194.196 396.663 195.357 C396.663 196.518 397.125 197.631 397.946 198.452 C398.766 199.273 399.88 199.734 401.041 199.734 z" clip-path="url(#paa076fcf06)" style="fill:none;stroke:#00f;stroke-width:2"/></g><g id="PathCollection_4"><defs><path id="C3_0_72e6d5a2bf" d="M0 4.74342 C1.25797 4.74342 2.46458 4.24362 3.3541 3.3541 C4.24362 2.46458 4.74342 1.25797 4.74342 0 C4.74342 -1.25797 4.24362 -2.46458 3.3541 -3.3541 C2.46458 -4.24362 1.25797 -4.74342 0 -4.74342 C-1.25797 -4.74342 -2.46458 -4.24362 -3.3541 -3.3541 C-4.24362 -2.46458 -4.74342 -1.25797 -4.74342 0 C-4.74342 1.25797 -4.24362 2.46458 -3.3541 3.3541 C-2.46458 4.24362 -1.25797 4.74342 0 4.74342 z"/></defs><g clip-path="url(#paa076fcf06)"><use style="fill:red" x="359.018" y="111.311" xlink:href="#C3_0_72e6d5a2bf"/></g></g></g></g><defs><clipPath id="paa076fcf06"><rect width="448.873" height="406.08" x="7.2" y="7.2"/></clipPath></defs></svg>