<svg xmlns="http://www.w3.org/2000/svg" xmlns:xlink="http://www.w3.org/1999/xlink" width="457pt" height="560" version="1.1" viewBox="0 0 457 420"><defs><style type="text/css">*{stroke-linecap:butt;stroke-linejoin:round}</style></defs><g id="figure_1"><g id="patch_1"><path d="M0 420.48 L457.396 420.48 L457.396 0 L0 0 z" style="fill:#fff"/></g><g id="axes_1"><g id="patch_2"><path d="M7.2 413.28 L450.196 413.28 L450.196 7.2 L7.2 7.2 z" style="fill:#fff"/></g><g id="line2d_1"><path d="M335.188 121.499 L377.783 206.69" clip-path="url(#p8bc0dcd9f0)" style="fill:none;stroke:red;stroke-dasharray:6,6;stroke-dashoffset:0;stroke-width:2"/></g><g id="PathCollection_1"><defs><path id="C0_0_72e6d5a2bf" d="M0 4.74342 C1.25797 4.74342 2.46458 4.24362 3.3541 3.3541 C4.24362 2.46458 4.74342 1.25797 4.74342 0 C4.74342 -1.25797 4.24362 -2.46458 3.3541 -3.3541 C2.46458 -4.24362 1.25797 -4.74342 0 -4.74342 C-1.25797 -4.74342 -2.46458 -4.24362 -3.3541 -3.3541 C-4.24362 -2.46458 -4.74342 -1.25797 -4.74342 0 C-4.74342 1.25797 -4.24362 2.46458 -3.3541 3.3541 C-2.46458 4.24362 -1.25797 4.74342 0 4.74342 z"/></defs><g clip-path="url(#p8bc0dcd9f0)"><use x="335.188" y="121.499" xlink:href="#C0_0_72e6d5a2bf"/></g></g><g id="PathCollection_2"><defs><path id="C1_0_72e6d5a2bf" d="M0 4.74342 C1.25797 4.74342 2.46458 4.24362 3.3541 3.3541 C4.24362 2.46458 4.74342 1.25797 4.74342 0 C4.74342 -1.25797 4.24362 -2.46458 3.3541 -3.3541 C2.46458 -4.24362 1.25797 -4.74342 0 -4.74342 C-1.25797 -4.74342 -2.46458 -4.24362 -3.3541 -3.3541 C-4.24362 -2.46458 -4.74342 -1.25797 -4.74342 0 C-4.74342 1.25797 -4.24362 2.46458 -3.3541 3.3541 C-2.46458 4.24362 -1.25797 4.74342 0 4.74342 z"/></defs><g clip-path="url(#p8bc0dcd9f0)"><use style="fill:#00f" x="335.188" y="227.988" xlink:href="#C1_0_72e6d5a2bf"/></g></g><g id="PathCollection_3"><defs><path id="C2_0_72e6d5a2bf" d="M0 4.74342 C1.25797 4.74342 2.46458 4.24362 3.3541 3.3541 C4.24362 2.46458 4.74342 1.25797 4.74342 0 C4.74342 -1.25797 4.24362 -2.46458 3.3541 -3.3541 C2.46458 -4.24362 1.25797 -4.74342 0 -4.74342 C-1.25797 -4.74342 -2.46458 -4.24362 -3.3541 -3.3541 C-4.24362 -2.46458 -4.74342 -1.25797 -4.74342 0 C-4.74342 1.25797 -4.24362 2.46458 -3.3541 3.3541 C-2.46458 4.24362 -1.25797 4.74342 0 4.74342 z"/></defs><g clip-path="url(#p8bc0dcd9f0)"><use style="fill:#00f" x="406.181" y="192.492" xlink:href="#C2_0_72e6d5a2bf"/></g></g><g id="patch_3"><path d="M51.2157 369.974 Q51.2157 192.492 51.2157 16.1273" clip-path="url(#p8bc0dcd9f0)" style="fill:none;stroke:#000;stroke-linecap:round"/><path d="M46.2157 26.1273 L51.2157 16.1273 L56.2157 26.1273 L46.2157 26.1273 z" clip-path="url(#p8bc0dcd9f0)" style="stroke:#000;stroke-linecap:round"/></g><g id="patch_4"><path d="M51.2157 369.974 Q51.2157 387.723 51.2157 404.353" clip-path="url(#p8bc0dcd9f0)" style="fill:none;stroke:#000;stroke-linecap:round"/><path d="M56.2157 394.353 L51.2157 404.353 L46.2157 394.353 L56.2157 394.353 z" clip-path="url(#p8bc0dcd9f0)" style="stroke:#000;stroke-linecap:round"/></g><g id="patch_5"><path d="M51.2157 369.974 Q246.446 369.974 440.559 369.974" clip-path="url(#p8bc0dcd9f0)" style="fill:none;stroke:#000;stroke-linecap:round"/><path d="M430.559 364.974 L440.559 369.974 L430.559 374.974 L430.559 364.974 z" clip-path="url(#p8bc0dcd9f0)" style="stroke:#000;stroke-linecap:round"/></g><g id="patch_6"><path d="M51.2157 369.974 Q33.4674 369.974 16.8372 369.974" clip-path="url(#p8bc0dcd9f0)" style="fill:none;stroke:#000;stroke-linecap:round"/><path d="M26.8372 374.974 L16.8372 369.974 L26.8372 364.974 L26.8372 374.974 z" clip-path="url(#p8bc0dcd9f0)" style="stroke:#000;stroke-linecap:round"/></g><g id="patch_7"><path d="M51.2157 369.974 Q33.4674 378.848 17.7192 386.723" clip-path="url(#p8bc0dcd9f0)" style="fill:none;stroke:#00f;stroke-linecap:round;stroke-width:2"/><path d="M28.8995 386.723 L17.7192 386.723 L24.4274 377.778 L28.8995 386.723 z" clip-path="url(#p8bc0dcd9f0)" style="fill:#00f;stroke:#00f;stroke-linecap:round;stroke-width:2"/></g><g id="patch_8"><path d="M406.181 192.492 Q423.929 183.618 439.677 175.743" clip-path="url(#p8bc0dcd9f0)" style="fill:none;stroke:#00f;stroke-linecap:round;stroke-width:2"/><path d="M428.497 175.743 L439.677 175.743 L432.969 184.688 L428.497 175.743 z" clip-path="url(#p8bc0dcd9f0)" style="fill:#00f;stroke:#00f;stroke-linecap:round;stroke-width:2"/></g><g id="line2d_2"><path d="M51.2157 369.974 L406.181 192.492 L406.181 192.492" clip-path="url(#p8bc0dcd9f0)" style="fill:none;stroke:#00f;stroke-linecap:square;stroke-width:2"/></g><g id="PathCollection_4"><defs><path id="C3_0_72e6d5a2bf" d="M0 4.74342 C1.25797 4.74342 2.46458 4.24362 3.3541 3.3541 C4.24362 2.46458 4.74342 1.25797 4.74342 0 C4.74342 -1.25797 4.24362 -2.46458 3.3541 -3.3541 C2.46458 -4.24362 1.25797 -4.74342 0 -4.74342 C-1.25797 -4.74342 -2.46458 -4.24362 -3.3541 -3.3541 C-4.24362 -2.46458 -4.74342 -1.25797 -4.74342 0 C-4.74342 1.25797 -4.24362 2.46458 -3.3541 3.3541 C-2.46458 4.24362 -1.25797 4.74342 0 4.74342 z"/></defs><g clip-path="url(#p8bc0dcd9f0)"><use style="fill:red" x="377.783" y="206.69" xlink:href="#C3_0_72e6d5a2bf"/></g></g></g></g><defs><clipPath id="p8bc0dcd9f0"><rect width="442.996" height="406.08" x="7.2" y="7.2"/></clipPath></defs></svg>